<svg width="212" height="33" viewBox="0 0 212 33" fill="none" xmlns="http://www.w3.org/2000/svg">
<path d="M170.518 32.9709L162.603 21.981C161.402 22.121 160.342 22.1909 159.352 22.1909H149.883V32.9709H147.48V0.0710449H159.352C163.522 0.0710449 166.772 1.05105 169.175 3.01104C171.578 4.97104 172.708 7.70101 172.708 11.131C172.708 13.721 172.002 15.891 170.659 17.711C169.316 19.461 167.408 20.721 164.864 21.421L173.132 32.9009H170.518V32.9709ZM159.352 20.091C162.886 20.091 165.571 19.321 167.479 17.781C169.387 16.241 170.306 14.001 170.306 11.201C170.306 8.40103 169.387 6.16102 167.479 4.62103C165.571 3.08103 162.886 2.31105 159.352 2.31105H149.883V20.161H159.352V20.091Z" fill="#1588F1"/>
<path d="M32.012 0.0710449L17.2427 32.9709H14.7693L0 0.0710449H2.68532L16.112 29.8909L29.468 0.0710449H32.012Z" fill="#1588F1"/>
<path d="M66.3557 17.291H84.0223V15.191H63.8823V32.9709H86.7783V30.8009H66.285V17.291H66.3557ZM63.953 0.0710449V2.24104H86.849V0.0710449H63.953Z" fill="white"/>
<path d="M189.104 0.0710449V2.24104H212V0.0710449H189.104ZM191.507 30.8009V17.291H209.173V15.191H189.033V32.9709H212V30.8009H191.507Z" fill="white"/>
<path d="M45.5101 0.070004L32.0835 29.8199L26.6421 17.85L25.3701 20.7899L30.8115 32.8999H33.2141L47.9834 0H45.5101V0.070004Z" fill="white"/>
<path d="M131.017 32.9709H133.631L118.367 0.0710449H115.894L100.63 32.9709H103.245L108.191 22.1909H126.07L131.017 32.9709ZM109.181 20.091L117.095 2.73103L125.081 20.091H109.181Z" fill="white"/>
</svg>
